<svg aria-hidden="true" style="width:0;height:0;position:absolute;overflow:hidden" xmlns="http://www.w3.org/2000/svg"><defs><symbol id="icon-chevron-up" viewBox="0 0 28 28"><path d="m26.297 20.797-2.594 2.578a.99.99 0 0 1-1.406 0L14 15.078l-8.297 8.297a.99.99 0 0 1-1.406 0l-2.594-2.578a1.009 1.009 0 0 1 0-1.422L13.297 7.797a.99.99 0 0 1 1.406 0l11.594 11.578a1.009 1.009 0 0 1 0 1.422z"/></symbol><symbol id="icon-keyboard_arrow_up_16dp_2C3639_FILL0_wght400_GRAD0_opsz20" viewBox="0 0 32 32"><path d="m16 14.5-6.3 6.3L8 19.1l8-8 8 8-1.7 1.7-6.3-6.3z"/></symbol></defs></svg>